# xmcd CD database file
#
# Track frame offsets:
#	150
#	17128
#	28498
#	38345
#	53233
#	69068
#	81565
#	99998
#	116643
#	132275
#	150288
#	161138
#	175755
#
# Disc length: 2590 seconds
#
# Revision: 3
# Processed by: cddbd v1.5.2PL0 Copyright (c) Steve Scherf et al.
# Submitted via: CDex 1.79
#
DISCID=9e0a1c0d
DTITLE=Toni Price - Born To Be Blue
DYEAR=2003
DGENRE=Country
TTITLE0=Beautiful Garden
TTITLE1=Black And Blue Heart
TTITLE2=You Don't Love Me
TTITLE3=Born To Be Blue
TTITLE4=Sad As It Seems
TTITLE5=Blue River
TTITLE6=Nothing But Heartache
TTITLE7=Tennessee Whiskey
TTITLE8=Clouds
TTITLE9=Rain Down Tears
TTITLE10=Not Coming Home
TTITLE11=Get The Hell Outta Dodge
TTITLE12=One Of These Lonely Days
EXTD=YEAR: 2003
EXTT0=
EXTT1=
EXTT2=
EXTT3=
EXTT4=
EXTT5=
EXTT6=
EXTT7=
EXTT8=
EXTT9=
EXTT10=
EXTT11=
EXTT12=
PLAYORDER=
